#N canvas -7 0 681 676 10;
#X declare -lib mrpeach;
#X obj 42 35 openpanel;
#X msg 42 66 open \$1;
#X obj 41 104 readsf~;
#X obj 44 7 bng 15 250 50 0 empty empty empty 17 7 0 10 -262144 -1
-1;
#X obj 41 137 dac~;
#X obj 153 55 import mrpeach;
#X msg 151 112 connect localhost 12000;
#X msg 210 161 disconnect;
#X obj 157 190 udpsend;
#X obj 162 448 packOSC;
#X msg 220 402 send /k 400;
#X obj 163 384 packOSC;
#X obj 154 319 packOSC;
#X msg 212 273 send /o 255;
#X msg 221 338 send /r 1;
#X obj 168 249 packOSC;
#X msg 225 203 send /col 1;
#X obj 338 73 metro 50;
#X obj 341 112 random 50;
#X obj 343 155 + 130;
#X floatatom 343 198 5 0 0 0 - - -;
#X obj 340 31 tgl 15 0 empty empty empty 17 7 0 10 -262144 -1 -1 0
1;
#X msg 347 241 send /corazon \$1;
#X obj 343 280 packOSC;
#X obj 348 402 random 50;
#X floatatom 350 488 5 0 0 0 - - -;
#X obj 347 321 tgl 15 0 empty empty empty 17 7 0 10 -262144 -1 -1 0
1;
#X obj 350 570 packOSC;
#X msg 354 530 send /pulmones \$1;
#X obj 345 363 metro 200;
#X obj 350 445 + 190;
#X obj 445 130 osc~;
#X obj 441 200 dac~;
#X obj 440 381 osc~;
#X obj 436 451 dac~;
#X obj 54 499 adc~;
#X obj 83 541 *~;
#X msg 121 490 \$1 20;
#X obj 124 518 line~;
#X obj 92 582 delwrite~ baz 1000;
#X obj 214 484 delread~ baz 1000;
#X msg 240 550 \$1 20;
#X obj 243 578 line~;
#X obj 219 605 *~;
#X obj 217 631 dac~;
#X msg 9 62 0;
#X obj 442 167 *~ 0.5;
#X obj 437 416 *~ 0.5;
#X msg 123 461 0;
#X msg 240 521 0;
#X connect 0 0 1 0;
#X connect 1 0 2 0;
#X connect 2 0 4 0;
#X connect 2 0 4 1;
#X connect 3 0 0 0;
#X connect 5 0 6 0;
#X connect 6 0 8 0;
#X connect 7 0 8 0;
#X connect 9 0 8 0;
#X connect 10 0 9 0;
#X connect 11 0 8 0;
#X connect 12 0 8 0;
#X connect 13 0 12 0;
#X connect 14 0 11 0;
#X connect 15 0 8 0;
#X connect 16 0 15 0;
#X connect 17 0 18 0;
#X connect 18 0 19 0;
#X connect 19 0 20 0;
#X connect 20 0 22 0;
#X connect 20 0 31 0;
#X connect 21 0 17 0;
#X connect 22 0 23 0;
#X connect 23 0 8 0;
#X connect 24 0 30 0;
#X connect 25 0 28 0;
#X connect 25 0 33 0;
#X connect 26 0 29 0;
#X connect 27 0 8 0;
#X connect 28 0 27 0;
#X connect 29 0 24 0;
#X connect 30 0 25 0;
#X connect 31 0 46 0;
#X connect 33 0 47 0;
#X connect 35 0 36 0;
#X connect 36 0 39 0;
#X connect 37 0 38 0;
#X connect 38 0 36 1;
#X connect 40 0 43 0;
#X connect 40 0 39 0;
#X connect 41 0 42 0;
#X connect 42 0 43 1;
#X connect 43 0 44 0;
#X connect 43 0 44 1;
#X connect 45 0 2 0;
#X connect 46 0 32 0;
#X connect 46 0 32 1;
#X connect 47 0 34 0;
#X connect 47 0 34 1;
#X connect 48 0 37 0;
#X connect 49 0 41 0;
